<?xml version="1.0" encoding="UTF-8"?>
<svg id="Camada_1" data-name="Camada 1" xmlns="http://www.w3.org/2000/svg" viewBox="0 0 991.82 505.55">
  <path d="m663.36,0h-96.68c-4.19,0-7.94,2.62-9.39,6.56l-178.46,486.47L487,12.19c1.41-6.25-3.35-12.19-9.76-12.19h-98.6c-4.19,0-7.94,2.61-9.38,6.55l-179.43,487.7L297.9,12.2c1.41-6.25-3.35-12.2-9.76-12.2h-99.44c-4.19,0-7.93,2.61-9.38,6.54L.63,490.64c-2.41,6.53,2.42,13.46,9.38,13.46h96.55c4.18,0,7.93-2.61,9.38-6.53L295.5,12.12l-107.16,479.8c-1.4,6.25,3.36,12.18,9.76,12.18h99.52c4.19,0,7.94-2.61,9.38-6.54L483.61,18.1l-107.18,473.79c-1.42,6.26,3.34,12.21,9.75,12.21h99.25c4.19,0,7.94-2.62,9.39-6.55L672.74,13.45c2.4-6.53-2.43-13.45-9.39-13.45Z"/>
  <path d="m813.53,498.99L991.21,13.99c2.39-6.53-2.44-13.44-9.39-13.44h-97.71c-4.19,0-7.94,2.62-9.39,6.55l-67.21,182.88c-1.45,3.93-5.19,6.55-9.39,6.55l-148.04.02c-4.16,0-7.89,2.58-9.36,6.47l-27.51,73c-2.46,6.54,2.37,13.53,9.36,13.53h134.24c6.95-.01,11.78,6.9,9.39,13.42l-69.17,189.14c-2.39,6.52,2.44,13.43,9.39,13.43h97.7c4.2,0,7.95-2.62,9.39-6.56Z"/>
</svg>